<?xml version="1.0" encoding="UTF-8"?>
<svg xmlns="http://www.w3.org/2000/svg" xmlns:xlink="http://www.w3.org/1999/xlink" width="1900px" height="1900px" viewBox="0 0 1900 1900" version="1.1">
<g id="surface1">
<path style=" stroke:none;fill-rule:nonzero;fill:rgb(0%,0%,0%);fill-opacity:1;" d="M 560.121094 741.761719 C 547.199219 756.578125 539.21875 771.398438 541.878906 775.960938 C 543.398438 778.621094 543.019531 779 540.359375 777.480469 C 527.058594 769.121094 475.378906 919.980469 475 967.859375 C 475 981.921875 481.078125 999.78125 487.539062 1003.960938 C 504.640625 1014.601562 525.539062 999.78125 555.941406 955.699219 C 565.820312 941.261719 571.898438 935.179688 573.039062 938.601562 C 576.078125 948.859375 585.960938 957.21875 596.980469 959.5 C 611.421875 962.921875 625.859375 953.800781 645.621094 929.101562 C 662.71875 907.441406 679.441406 900.21875 701.859375 903.261719 L 713.640625 905.160156 L 702.621094 929.480469 C 696.539062 942.78125 691.601562 958.359375 691.601562 964.441406 C 691.601562 975.460938 701.480469 988 709.839844 988 C 715.921875 988 744.039062 962.539062 756.199219 945.441406 L 766.460938 931.378906 L 775.199219 940.5 C 786.980469 953.039062 795.71875 952.28125 808.261719 938.601562 C 815.101562 930.621094 819.660156 928.339844 822.320312 931 C 828.78125 937.460938 831.441406 935.558594 844.738281 914.660156 C 851.960938 904.019531 860.320312 892.621094 863.738281 889.578125 C 869.820312 884.640625 869.820312 885.398438 864.5 895.28125 C 856.519531 910.859375 857.28125 935.941406 865.640625 943.539062 C 880.460938 956.839844 888.820312 951.519531 923.019531 907.058594 C 934.421875 892.621094 922.640625 897.179688 900.21875 915.800781 C 886.921875 926.820312 875.519531 934.039062 874.761719 931.761719 C 872.480469 924.160156 881.21875 898.699219 891.101562 885.398438 C 901.738281 870.960938 903.261719 861.839844 895.28125 855.378906 C 886.921875 848.160156 878.941406 854.238281 856.898438 884.261719 C 840.558594 906.679688 836 910.859375 836 904.019531 C 836 893.378906 848.539062 864.5 854.621094 860.699219 C 858.039062 858.800781 858.039062 856.898438 854.621094 852.71875 C 845.121094 840.941406 837.898438 847.019531 827.261719 875.140625 C 821.558594 890.71875 817 905.921875 817 908.960938 C 817 916.558594 794.960938 935.558594 788.878906 933.660156 C 783.179688 931.378906 785.078125 918.460938 794.199219 899.839844 C 803.699219 880.078125 803.699219 879.320312 793.441406 876.660156 C 782.421875 873.621094 775.960938 879.320312 770.261719 898.320312 C 763.039062 923.78125 722.378906 974.699219 715.539062 967.480469 C 714.398438 966.339844 718.960938 952.28125 725.421875 935.941406 C 731.878906 919.601562 737.199219 904.398438 737.199219 902.121094 C 737.199219 896.800781 728.460938 893 715.921875 893 C 705.660156 893 703.378906 882.738281 711.359375 874.761719 C 715.160156 870.960938 715.160156 869.058594 710.601562 866.398438 C 702.238281 861.460938 690.078125 870.960938 687.800781 883.878906 C 686.28125 892.621094 683.621094 895.28125 674.878906 896.039062 C 666.140625 897.179688 664.238281 896.039062 666.519531 891.101562 C 667.660156 887.679688 669.941406 878.179688 671.078125 870.199219 C 672.980469 857.660156 671.839844 853.859375 663.859375 845.878906 C 658.160156 840.558594 649.800781 836 644.859375 836 C 635.738281 836 622.441406 847.78125 618.261719 859.941406 C 616.738281 863.359375 611.800781 867.921875 606.480469 870.199219 C 595.839844 874 587.480469 885.398438 558.601562 931.761719 C 535.039062 969.378906 514.898438 992.941406 508.058594 990.660156 C 500.839844 988.378906 500.460938 948.480469 507.300781 924.160156 C 511.480469 910.101562 524.78125 886.160156 544.539062 856.898438 C 589.378906 790.398438 602.300781 754.679688 585.960938 739.859375 C 576.460938 731.121094 568.859375 731.878906 560.121094 741.761719 Z M 579.5 760.761719 C 574.941406 782.039062 528.578125 868.679688 528.199219 856.140625 C 528.199219 844.738281 560.5 766.078125 570.761719 753.160156 C 577.980469 744.421875 582.160156 748.21875 579.5 760.761719 Z M 655.5 864.121094 C 649.800781 892.621094 645.621094 900.601562 636.5 900.601562 C 631.941406 900.601562 627 898.320312 625.859375 895.28125 C 622.820312 887.300781 629.660156 864.878906 638.78125 853.480469 C 649.421875 840.179688 658.921875 846.261719 655.5 864.121094 Z M 617.5 896.800781 C 619.019531 899.078125 625.480469 902.878906 631.941406 905.539062 L 643.71875 910.480469 L 624.339844 930.621094 C 613.699219 941.640625 602.679688 950 599.640625 949.238281 C 591.660156 946.578125 592.039062 930.238281 600.398438 910.859375 C 608.378906 893 612.941406 889.199219 617.5 896.800781 Z M 617.5 896.800781 "/>
<path style=" stroke:none;fill-rule:nonzero;fill:rgb(0%,0%,0%);fill-opacity:1;" d="M 1112.261719 761.519531 C 1111.121094 764.558594 1103.519531 767.980469 1095.539062 769.121094 C 1035.878906 777.480469 1026 779.761719 1026 785.078125 C 1026 794.199219 1041.578125 797.238281 1067.039062 793.441406 C 1080.339844 791.539062 1092.121094 790.78125 1093.261719 791.539062 C 1094.019531 792.679688 1091.738281 799.898438 1087.558594 808.261719 C 1083.761719 816.238281 1069.699219 851.578125 1056.398438 887.300781 C 1032.078125 952.28125 1024.101562 969 1018.019531 969 C 1016.121094 969 1008.898438 961.398438 1002.441406 951.898438 C 988.761719 932.519531 984.199219 930.621094 984.199219 944.679688 C 984.199219 978.878906 1019.539062 1002.058594 1039.300781 980.398438 C 1045 973.941406 1086.800781 880.078125 1086.800781 873.238281 C 1086.800781 871.71875 1095.539062 850.820312 1106.179688 826.878906 L 1125.558594 783.558594 L 1148.738281 779 C 1161.660156 776.339844 1178 773.679688 1184.839844 772.539062 C 1209.539062 768.738281 1200.421875 763.800781 1168.878906 763.800781 C 1151.019531 763.800781 1135.441406 761.898438 1134.300781 760 C 1130.878906 754.300781 1114.539062 755.441406 1112.261719 761.519531 Z M 1102.378906 823.460938 C 1098.199219 831.441406 1094.78125 836.761719 1094.398438 835.238281 C 1094.398438 830.679688 1106.941406 805.601562 1108.839844 807.121094 C 1109.601562 807.878906 1106.558594 815.101562 1102.378906 823.460938 Z M 1102.378906 823.460938 "/>
<path style=" stroke:none;fill-rule:nonzero;fill:rgb(0%,0%,0%);fill-opacity:1;" d="M 433.960938 769.121094 C 430.921875 776.339844 426.359375 778.621094 415.339844 779.761719 C 396.339844 781.28125 392.539062 793.058594 410.019531 796.480469 C 424.839844 799.519531 424.839844 803.320312 410.398438 837.140625 C 394.441406 874.378906 393.679688 875.898438 384.179688 877.039062 C 374.679688 878.558594 373.539062 887.300781 382.28125 892.238281 C 387.21875 894.898438 386.078125 900.601562 372.78125 934.421875 C 361 964.058594 358.339844 975.078125 361 980.398438 C 365.179688 988 378.859375 994.078125 383.039062 989.898438 C 384.558594 988.761719 393.300781 964.820312 402.800781 937.460938 L 420.28125 887.300781 L 449.160156 879.699219 C 488.679688 869.441406 490.960938 864.878906 454.859375 867.921875 C 427.121094 870.199219 425.21875 870.199219 427.121094 863.738281 C 428.640625 859.941406 434.339844 843.21875 440.039062 826.5 L 450.300781 796.480469 L 478.421875 791.539062 C 505.019531 786.601562 538.839844 772.921875 534.660156 769.121094 C 533.519531 767.980469 516.039062 769.121094 495.898438 771.398438 C 460.558594 775.199219 458.660156 774.820312 453.339844 767.601562 C 446.121094 757.339844 439.28125 758.101562 433.960938 769.121094 Z M 433.960938 769.121094 "/>
<path style=" stroke:none;fill-rule:nonzero;fill:rgb(0%,0%,0%);fill-opacity:1;" d="M 1337.601562 774.058594 C 1317.460938 781.28125 1300.359375 811.679688 1274.519531 885.019531 C 1273.378906 889.199219 1270.71875 888.441406 1264.261719 881.980469 C 1247.539062 866.78125 1237.660156 871.339844 1214.480469 903.640625 C 1189.398438 938.601562 1178.761719 937.460938 1191.679688 900.980469 C 1202.699219 869.441406 1189.78125 864.5 1168.121094 891.859375 C 1123.660156 947.71875 1112.261719 948.859375 1138.480469 894.898438 C 1146.078125 879.320312 1151.019531 864.878906 1149.5 862.980469 C 1136.578125 841.699219 1099.71875 900.601562 1102.761719 937.460938 C 1103.898438 949.621094 1105.421875 951.898438 1113.78125 953.039062 C 1121.378906 953.800781 1127.460938 949.621094 1142.660156 933.660156 C 1162.039062 913.140625 1162.039062 913.140625 1160.140625 925.300781 C 1156.339844 948.859375 1176.101562 955.699219 1196.238281 937.460938 L 1204.601562 929.859375 L 1204.601562 943.539062 C 1204.601562 956.839844 1214.859375 972.800781 1223.21875 972.800781 C 1225.121094 972.800781 1234.621094 967.101562 1243.738281 959.878906 L 1260.839844 946.960938 L 1262.738281 964.058594 C 1265.019531 984.960938 1277.179688 999.398438 1287.441406 993.320312 C 1293.519531 989.519531 1307.578125 972.800781 1335.699219 936.320312 L 1346.71875 921.878906 L 1349.761719 933.660156 C 1354.320312 950.761719 1370.660156 962.539062 1385.101562 959.878906 C 1396.878906 957.21875 1431.078125 926.820312 1434.5 915.421875 C 1436.019531 911.238281 1442.859375 907.820312 1452.738281 905.921875 C 1466.800781 903.261719 1485.800781 903.640625 1488.839844 905.921875 C 1489.21875 906.679688 1485.039062 916.941406 1479.71875 929.480469 C 1468.320312 955.699219 1466.421875 974.320312 1475.160156 983.058594 C 1480.480469 988.378906 1483.140625 988.378906 1493.398438 984.199219 C 1507.460938 978.5 1532.160156 950.761719 1550.019531 921.878906 C 1571.679688 885.78125 1561.039062 890.71875 1530.261719 930.621094 C 1494.921875 976.601562 1485.039062 980.78125 1498.71875 944.679688 C 1504.039062 931 1510.121094 916.558594 1512.398438 912 C 1518.480469 900.601562 1511.261719 893 1494.921875 893 C 1481.621094 893 1478.199219 886.921875 1486.179688 878.941406 C 1491.121094 874 1488.078125 862.601562 1482 862.601562 C 1474.78125 862.601562 1463 877.800781 1463 887.300781 C 1463 894.898438 1461.101562 896.800781 1453.5 896.800781 C 1444.378906 896.800781 1443.621094 896.039062 1446.28125 882.359375 C 1448.941406 867.160156 1448.941406 867.539062 1448.179688 858.039062 C 1447.800781 848.921875 1432.601562 836 1422.71875 836 C 1414.738281 836 1394.601562 855 1394.601562 862.601562 C 1394.601562 864.5 1391.179688 867.160156 1387 868.300781 C 1379.398438 870.578125 1343.679688 912 1307.578125 959.5 C 1287.441406 986.480469 1283.261719 982.679688 1288.578125 942.019531 C 1292.761719 911.621094 1293.898438 909.71875 1327.339844 864.5 C 1361.160156 818.519531 1371.039062 794.960938 1361.160156 780.519531 C 1357.738281 774.820312 1344.820312 771.398438 1337.601562 774.058594 Z M 1352.800781 797.238281 C 1352.800781 802.941406 1346.339844 818.519531 1338.359375 832.199219 C 1323.539062 857.28125 1299.601562 892.238281 1299.601562 888.058594 C 1299.601562 881.21875 1324.679688 816.238281 1332.660156 802.558594 C 1343.679688 783.941406 1352.800781 781.660156 1352.800781 797.238281 Z M 1432.601562 859.558594 C 1432.601562 866.019531 1430.699219 877.800781 1428.039062 885.78125 C 1424.621094 897.558594 1421.960938 900.601562 1414.738281 900.601562 C 1409.800781 900.601562 1404.859375 897.941406 1403.71875 894.898438 C 1398.78125 882.359375 1420.441406 840.558594 1429.179688 845.878906 C 1431.078125 847.019531 1432.601562 853.101562 1432.601562 859.558594 Z M 1268.058594 913.898438 C 1266.539062 925.300781 1261.980469 932.519531 1250.578125 943.160156 C 1232.71875 959.878906 1227.398438 961.019531 1227.398438 948.101562 C 1227.398438 936.320312 1241.078125 900.980469 1249.058594 891.859375 C 1255.140625 885.78125 1255.519531 885.78125 1262.738281 891.859375 C 1268.441406 897.179688 1269.578125 902.121094 1268.058594 913.898438 Z M 1413.980469 908.199219 C 1420.441406 908.199219 1417.398438 915.421875 1405.238281 929.480469 C 1390.800781 945.441406 1375.980469 952.660156 1371.421875 945.441406 C 1367.621094 939.738281 1369.519531 932.898438 1380.160156 907.441406 L 1387.761719 889.199219 L 1399.160156 898.699219 C 1405.238281 904.019531 1412.078125 908.199219 1413.980469 908.199219 Z M 1413.980469 908.199219 "/>
<path style=" stroke:none;fill-rule:nonzero;fill:rgb(0%,0%,0%);fill-opacity:1;" d="M 799.898438 817 C 798.761719 818.898438 798.378906 822.320312 799.519531 823.839844 C 800.660156 825.738281 798 834.480469 793.441406 843.21875 C 784.699219 861.078125 788.121094 869.441406 799.898438 859.179688 C 808.640625 851.960938 820.800781 830.300781 820.800781 822.699219 C 820.800781 814.71875 804.078125 810.160156 799.898438 817 Z M 799.898438 817 "/>
<path style=" stroke:none;fill-rule:nonzero;fill:rgb(0%,0%,0%);fill-opacity:1;" d="M 692.738281 1083 C 692.359375 1092.5 693.121094 1097.058594 694.261719 1093.261719 C 696.539062 1084.898438 705.28125 1084.898438 710.21875 1093.261719 C 713.261719 1098.578125 713.640625 1098.199219 713.261719 1090.21875 C 712.5 1082.621094 710.980469 1081.101562 704.140625 1082.238281 C 698.058594 1083.378906 695.78125 1081.480469 694.261719 1075.019531 C 693.5 1070.078125 692.738281 1073.5 692.738281 1083 Z M 692.738281 1083 "/>
<path style=" stroke:none;fill-rule:nonzero;fill:rgb(0%,0%,0%);fill-opacity:1;" d="M 739.101562 1071.980469 C 737.578125 1074.261719 737.199219 1076.539062 738.339844 1077.679688 C 739.101562 1078.820312 741 1076.921875 742.140625 1073.5 C 744.800781 1067.039062 742.519531 1065.898438 739.101562 1071.980469 Z M 739.101562 1071.980469 "/>
<path style=" stroke:none;fill-rule:nonzero;fill:rgb(0%,0%,0%);fill-opacity:1;" d="M 758.480469 1072.738281 C 759.621094 1076.539062 761.898438 1078.441406 763.039062 1077.300781 C 764.179688 1076.160156 763.039062 1073.121094 760.378906 1070.460938 C 756.578125 1067.039062 756.199219 1067.421875 758.480469 1072.738281 Z M 758.480469 1072.738281 "/>
<path style=" stroke:none;fill-rule:nonzero;fill:rgb(0%,0%,0%);fill-opacity:1;" d="M 787.738281 1083 C 787.738281 1092.5 788.5 1096.300781 789.261719 1091.359375 C 790.019531 1086.800781 790.019531 1079.199219 789.261719 1074.261719 C 788.5 1069.699219 787.738281 1073.5 787.738281 1083 Z M 787.738281 1083 "/>
<path style=" stroke:none;fill-rule:nonzero;fill:rgb(0%,0%,0%);fill-opacity:1;" d="M 977.359375 1081.859375 C 976.601562 1097.441406 976.980469 1098.199219 987.238281 1097.820312 C 995.601562 1097.441406 995.980469 1097.058594 989.140625 1095.539062 C 982.679688 1094.398438 980.398438 1090.601562 979.261719 1079.960938 L 977.738281 1065.898438 Z M 977.359375 1081.859375 "/>
<path style=" stroke:none;fill-rule:nonzero;fill:rgb(0%,0%,0%);fill-opacity:1;" d="M 1019.539062 1083 C 1019.539062 1092.5 1020.300781 1096.300781 1021.058594 1091.359375 C 1021.820312 1086.800781 1021.820312 1079.199219 1021.058594 1074.261719 C 1020.300781 1069.699219 1019.539062 1073.5 1019.539062 1083 Z M 1019.539062 1083 "/>
<path style=" stroke:none;fill-rule:nonzero;fill:rgb(0%,0%,0%);fill-opacity:1;" d="M 1136.960938 1083 C 1137.339844 1098.199219 1137.71875 1098.578125 1138.859375 1086.800781 L 1140.761719 1073.5 L 1151.78125 1086.800781 L 1162.421875 1100.101562 L 1162.039062 1083 C 1161.660156 1069.699219 1161.28125 1068.558594 1160.140625 1078.058594 L 1158.621094 1090.21875 L 1147.601562 1078.058594 L 1136.578125 1065.898438 Z M 1136.960938 1083 "/>
<path style=" stroke:none;fill-rule:nonzero;fill:rgb(0%,0%,0%);fill-opacity:1;" d="M 666.898438 1078.820312 C 664.621094 1080.71875 659.679688 1083 655.5 1084.140625 C 648.28125 1085.660156 648.28125 1086.039062 655.878906 1086.421875 C 660.441406 1086.421875 666.140625 1084.140625 668.800781 1081.101562 C 674.121094 1075.019531 672.601562 1073.5 666.898438 1078.820312 Z M 666.898438 1078.820312 "/>
<path style=" stroke:none;fill-rule:nonzero;fill:rgb(0%,0%,0%);fill-opacity:1;" d="M 820.039062 1081.859375 C 822.320312 1082.621094 826.878906 1082.621094 829.539062 1081.859375 C 831.820312 1080.71875 829.921875 1079.960938 824.601562 1079.960938 C 819.28125 1079.960938 817.378906 1080.71875 820.039062 1081.859375 Z M 820.039062 1081.859375 "/>
<path style=" stroke:none;fill-rule:nonzero;fill:rgb(0%,0%,0%);fill-opacity:1;" d="M 1097.441406 1081.859375 C 1099.71875 1082.621094 1104.28125 1082.621094 1106.941406 1081.859375 C 1109.21875 1080.71875 1107.320312 1079.960938 1102 1079.960938 C 1096.679688 1079.960938 1094.78125 1080.71875 1097.441406 1081.859375 Z M 1097.441406 1081.859375 "/>
<path style=" stroke:none;fill-rule:nonzero;fill:rgb(0%,0%,0%);fill-opacity:1;" d="M 1246.398438 1081.101562 C 1246.398438 1083 1248.300781 1087.558594 1250.199219 1090.601562 C 1252.101562 1093.640625 1254 1094.398438 1254 1092.5 C 1254 1090.21875 1252.101562 1086.039062 1250.199219 1083 C 1248.300781 1079.960938 1246.398438 1078.820312 1246.398438 1081.101562 Z M 1246.398438 1081.101562 "/>
<path style=" stroke:none;fill-rule:nonzero;fill:rgb(0%,0%,0%);fill-opacity:1;" d="M 752.398438 1092.878906 C 745.941406 1096.300781 744.800781 1098.199219 748.980469 1098.199219 C 752.398438 1098.199219 757.339844 1095.539062 760 1092.5 C 765.699219 1085.660156 764.941406 1085.660156 752.398438 1092.878906 Z M 752.398438 1092.878906 "/>
<path style=" stroke:none;fill-rule:nonzero;fill:rgb(0%,0%,0%);fill-opacity:1;" d="M 861.460938 1095.160156 C 862.21875 1097.058594 866.398438 1098.199219 870.199219 1098.199219 C 874 1098.199219 878.179688 1097.058594 878.941406 1095.160156 C 880.078125 1093.640625 875.898438 1092.5 870.199219 1092.5 C 864.5 1092.5 860.320312 1093.640625 861.460938 1095.160156 Z M 861.460938 1095.160156 "/>
<path style=" stroke:none;fill-rule:nonzero;fill:rgb(0%,0%,0%);fill-opacity:1;" d="M 821.941406 1097.058594 C 825.359375 1097.820312 830.679688 1097.820312 833.339844 1097.058594 C 835.621094 1095.921875 832.960938 1095.160156 826.5 1095.160156 C 820.421875 1095.160156 818.140625 1095.921875 821.941406 1097.058594 Z M 821.941406 1097.058594 "/>
<path style=" stroke:none;fill-rule:nonzero;fill:rgb(0%,0%,0%);fill-opacity:1;" d="M 1055.640625 1097.058594 C 1058.300781 1098.199219 1061.71875 1097.820312 1062.859375 1096.679688 C 1064.378906 1095.539062 1062.101562 1094.398438 1057.921875 1094.78125 C 1053.738281 1094.78125 1052.601562 1095.921875 1055.640625 1097.058594 Z M 1055.640625 1097.058594 "/>
<path style=" stroke:none;fill-rule:nonzero;fill:rgb(0%,0%,0%);fill-opacity:1;" d="M 1099.339844 1097.058594 C 1102.761719 1097.820312 1108.078125 1097.820312 1110.738281 1097.058594 C 1113.019531 1095.921875 1110.359375 1095.160156 1103.898438 1095.160156 C 1097.820312 1095.160156 1095.539062 1095.921875 1099.339844 1097.058594 Z M 1099.339844 1097.058594 "/>
</g>
</svg>
